<svg height="258" version="1.1" viewBox="-69 -41 260 258" width="260" xmlns="http://www.w3.org/2000/svg" xmlns:ev="http://www.w3.org/2001/xml-events" xmlns:xlink="http://www.w3.org/1999/xlink"><path d="M 2,10 -2,1 2,10 0,0 2,10 -2,1 2,8 -1,-2 2,3 1,-2 -11,-6 -3,-4 9,6 17,20 20,24 18,40 14,55 13,68 15,71 17,74 11,87 3,99 -4,112 -12,124 -14,118 2,118 15,115 24,109 35,97 39,86 47,76 64,78 79,85 88,100 97,110 107,116 118,118 126,119 139,116 144,113 149,110 152,103 151,92 145,77 137,64 150,52 160,42 163,32 162,23 158,15 149,8 133,3 124,2 107,8 96,15 82,24 78,29 70,36 58,41 43,31 40,21 31,15 16,6 -1,2 -16,3 -28,9 -35,14 -40,20 -43,29 -41,37 -36,45 -28,54 -14,60 -23,75 -28,88 -30,101 -29,107 -24,114 -14,118 -16,115 -27,86 -14,104 -4,119 -14,91 -20,69 -13,79 11,111 14,116 21,112 11,98 -12,66 -36,33 -38,17 -35,21 -12,53 12,85 27,106 12,72 -11,40 -25,7 -11,27 13,60 34,89 36,92 42,80 51,73 75,70 89,73 98,71 117,56 135,41 140,38 147,38 153,41 160,40 163,34 141,5 140,17 154,49 139,29 120,3 115,10 139,42 142,61 138,55 115,23 105,9 114,36 138,68 151,91 152,101 137,81 113,48 91,18 89,29 113,61 136,93 142,114 136,106 112,74 89,42 79,28 88,54 112,87 125,119 111,100 88,67 66,38 63,48 87,80 111,112 115,118 101,112 86,93 63,60 39,28 29,13 13,6 15,9 39,41 62,73 55,77 38,54 15,21 1,3 14,34 38,66 41,72 47,79 40,84 37,79 13,47 -10,15 -18,4 -25,7 -28,-1 -33,3 -44,11 -26,0 -13,-7 -18,-3 -44,16 -50,20 -36,13 -12,-4 -5,-7 -28,10 -53,28 -46,26 -21,7 2,-7 -13,4 -39,23 -52,33 -31,20 -5,1 8,-6 3,-2 -23,17 -48,35 -52,37 -41,32 -15,14 10,-2 13,-4 -8,11 -34,29 -50,41 -26,26 0,8 18,-3 8,5 -18,23 -44,42 -48,45 -36,39 -10,21 15,2 23,-1 -3,18 -29,36 -46,49 -21,33 5,15 27,1 13,12 -13,30 -39,49 -43,52 -31,46 -5,27 20,9 31,3 28,6 2,24 -24,43 -41,56 -16,40 10,21 35,6 18,18 -8,37 -34,56 -38,59 -26,53 0,34 25,15 40,8 33,13 7,31 -19,50 -35,62 -11,47 15,28 39,11 44,10 23,25 -3,44 -27,62 -30,64 -21,60 5,41 31,22 47,13 38,19 12,38 -13,57 -30,69 -26,69 -6,54 20,35 45,17 50,16 28,32 2,51 -24,70 -35,78 -16,67 10,48 36,29 51,21 43,26 17,45 -8,64 -33,82 -37,85 -27,80 -1,61 25,42 48,26 52,25 33,39 7,58 -19,77 -38,91 -34,91 -11,74 15,55 41,36 56,28 48,33 22,52 -3,71 -29,90 -40,98 -22,87 4,68 30,49 55,31 60,30 38,46 12,65 -14,84 -37,101 -40,103 -32,100 -6,81 20,62 46,43 68,30 53,40 28,59 2,78 -24,97 -39,107 -26,109 -11,110 6,109 22,106 14,118 16,123 24,120 31,115 35,110 8,127 27,112 44,100 19,115 -2,128 11,118 37,100 46,93 30,103 4,121 -7,126 -4,124 22,106 46,88 52,83 61,67 71,51 81,34 90,18 87,14 96,5 87,10 74,20 72,24 97,5 115,-5 105,2 79,21 53,40 28,59 2,78 -24,97 -40,108 -17,94 9,75 35,56 61,37 87,18 113,0 127,-8 121,-3 95,15 69,34 43,53 17,72 -9,91 -35,110 -38,112 -27,107 -1,88 25,69 51,50 77,31 102,12 127,-5 133,-7 110,9 84,28 58,47 33,66 7,85 -19,104 -35,116 -11,101 14,82 40,63 66,44 92,25 118,6 139,-6 126,3 100,22 74,41 48,60 22,79 -4,98 -30,117 -33,119 -22,114 4,95 30,76 56,57 82,38 108,19 133,0 144,-5 141,-2 115,16 89,35 63,54 38,73 12,92 -14,111 -30,122 -6,108 19,89 45,70 71,51 97,32 123,13 149,-3 131,10 105,29 79,48 53,67 27,86 1,105 -22,122 -26,124 -17,120 9,102 35,83 61,64 87,45 113,26 138,7 154,-1 146,4 120,23 94,42 69,61 43,80 17,99 -9,118 -21,126 -1,115 24,96 50,77 76,58 102,39 128,20 153,2 158,1 136,17 110,36 84,55 58,74 32,93 6,112 -16,128 -9,125 14,109 40,90 66,71 92,52 118,33 143,14 161,4 151,11 125,30 99,49 74,68 48,87 22,106 -4,124 -9,128 17,110 44,92 55,84 81,65 107,46 133,27 159,8 164,7 141,24 115,43 89,62 63,81 55,87 71,78 97,59 123,40 148,21 168,10 156,18 130,37 104,56 79,75 61,88 86,72 112,53 138,34 164,15 169,14 146,31 120,50 94,69 69,87 66,90 76,85 102,66 128,47 154,28 171,18 161,25 135,44 110,63 84,82 70,92 91,79 117,60 143,41 169,22 173,22 151,38 125,57 99,76 76,93 73,95 81,92 107,73 133,54 159,35 173,27 166,32 140,51 115,70 89,89 75,99 96,86 122,67 148,48 173,33 156,45 130,64 104,83 80,100 77,102 86,99 112,80 138,61 164,42 171,39 145,58 120,77 94,96 80,106 101,93 127,74 153,55 167,48 161,52 135,71 109,90 85,107 82,109 91,105 117,87 143,68 150,65 125,84 99,102 85,113 106,99 132,81 152,69 140,78 114,97 91,113 88,116 96,112 122,94 148,75 154,73 130,91 104,109 91,118 112,106 137,88 156,76 145,85 119,103 95,121 101,119 127,100 153,82 159,80 135,97 109,116 99,123 117,113 142,94 160,84 150,91 124,110 104,125 129,110 132,107 157,89 161,89 140,104 114,123 109,127 122,120 147,101 162,94 155,98 129,117 115,128 137,114 163,98 145,111 121,128 128,126 153,108 161,105 158,107 134,124 129,128 142,121 159,112 150,118 142,124 151,114 145,118 152,114 146,118 151,114 146,118 152,114 146,118 151,114 151,114" fill="none" stroke="#fe9e32" stroke-width="3" /><path d="M 77,48 67,49 77,48 70,49 77,48 67,49 76,48 69,49 75,49 74,47 85,45 98,42 107,40 115,36 125,41 131,36 133,30 127,21 122,19 117,20 111,30 112,39 123,44 132,37 133,29 127,22 118,20 112,23 110,33 117,41 125,41 132,35 134,28 132,21 128,13 140,26 121,11 143,33 116,11 142,38 112,12 141,41 108,14 139,44 106,17 137,47 104,20 133,49 102,23 129,51 102,27 124,51 103,33 116,48 107,39 94,43 82,46 73,48 77,59 74,66 81,72 94,79 110,87 115,98 122,98 126,91 122,82 115,79 109,84 110,96 119,101 125,96 130,93 131,91 135,88 127,103 134,81 121,108 132,77 117,109 129,74 113,108 126,72 110,107 123,71 106,105 120,71 104,102 115,72 102,98 110,76 102,89 104,84 93,78 85,74 75,66 60,71 49,68 44,65 36,72 27,78 18,84 10,87 7,82 1,81 -5,84 -7,92 2,100 10,97 10,88 7,82 1,79 -7,86 -8,90 -7,96 -14,89 -3,105 -13,83 2,108 -12,79 6,108 -9,75 10,107 -6,73 13,106 -3,72 16,104 1,71 18,101 6,72 20,97 12,75 20,91 17,85 28,78 34,73 40,69 45,60 44,55 44,49 31,47 20,43 13,40 10,37 10,27 3,20 -2,19 -10,23 -14,31 -7,42 1,44 7,39 10,31 8,23 3,19 -4,18 -11,21 -14,28 -13,34 -15,18 -20,35 -10,12 -19,42 -5,10 -16,46 -2,9 -14,48 2,9 -11,50 6,10 -7,52 9,11 -4,52 12,13 -1,52 15,16 3,51 17,20 6,50 18,27 11,46 14,40 21,44 32,47 39,49 44,52 52,52 46,51 52,52 46,51 52,52 46,51 52,52 46,51 46,51" fill="none" stroke="#e8a900" stroke-width="3" /><path d="M 78,53 71,53 78,53 70,53 78,53 71,53 79,52 69,53 79,51 87,56 98,61 107,65 112,66 121,68 130,68 141,65 146,63 154,73 158,84 163,95 163,111 159,120 147,127 133,129 115,127 103,124 96,120 89,114 83,108 77,99 84,108 92,118 101,123 110,126 120,130 130,130 139,130 153,127 165,121 169,111 167,99 162,87 158,81 155,74 150,67 155,80 160,92 162,103 158,119 145,126 129,129 115,127 107,124 104,124 97,120 104,126 106,123 117,133 113,124 125,135 119,124 131,136 123,123 136,136 128,122 143,136 132,121 149,136 136,120 155,135 139,119 160,134 143,116 164,132 145,114 168,129 147,112 171,125 149,109 173,121 150,106 175,117 151,103 176,113 152,100 176,108 153,97 176,103 153,94 176,98 153,90 174,93 152,86 172,88 151,83 169,83 150,79 166,79 148,75 163,74 145,72 159,70 142,68 155,66 153,61 161,56 170,52 176,42 179,30 174,18 166,8 158,1 148,-2 138,-5 124,-7 115,-5 103,-2 89,5 82,10 73,16 87,7 102,-1 115,-5 126,-7 142,-5 156,3 166,11 173,24 172,34 166,49 158,58 149,63 144,65 138,68 148,63 159,59 171,49 179,39 180,32 178,21 172,12 164,5 153,0 145,-3 137,-4 134,-5 125,-6 132,-8 134,-4 148,-8 140,-2 157,-6 145,1 163,-4 149,4 168,-1 152,7 173,2 155,10 178,6 158,14 181,9 160,17 184,13 161,21 187,17 162,24 188,21 162,27 190,26 163,31 191,30 163,34 191,35 162,37 190,39 161,40 188,44 159,43 186,48 157,46 183,52 155,49 179,55 153,51 174,58 150,54 170,61 147,56 165,64 143,59 161,66 138,62 155,68 132,64 148,69 123,67 132,69 127,68 115,66 100,62 87,55 77,50 75,54 66,55 56,56 43,50 40,50 31,57 18,63 9,66 -1,68 -6,68 -15,65 -24,62 -30,60 -27,66 -35,79 -38,88 -42,97 -41,112 -31,126 -18,129 -5,129 5,128 13,125 23,121 30,116 35,111 39,107 46,97 37,108 29,117 20,123 6,128 -12,131 -24,129 -36,126 -43,119 -47,110 -47,102 -45,91 -42,85 -35,75 -29,70 -24,65 -32,75 -39,86 -42,94 -45,103 -45,116 -38,126 -25,130 -15,130 -7,128 5,128 12,126 21,123 24,119 20,126 18,121 14,129 13,122 9,132 8,122 4,134 4,123 -2,136 0,122 -7,137 -4,122 -12,137 -8,121 -17,138 -11,121 -22,138 -15,119 -27,138 -18,118 -32,137 -21,116 -36,135 -24,114 -40,133 -25,112 -44,130 -27,109 -47,126 -28,107 -49,122 -29,104 -51,118 -30,102 -53,113 -31,99 -54,109 -31,97 -54,104 -31,93 -54,99 -30,90 -53,94 -30,87 -52,89 -28,84 -50,85 -27,81 -47,80 -26,77 -44,76 -24,74 -41,72 -22,71 -37,69 -20,68 -32,65 -29,63 -38,56 -47,48 -52,38 -52,22 -46,12 -38,7 -31,2 -20,-2 -10,-5 2,-6 13,-4 25,2 36,7 45,13 33,5 19,-1 3,-6 -9,-6 -24,-3 -34,4 -44,10 -52,23 -52,33 -51,43 -41,55 -31,62 -22,65 -15,66 -10,68 -23,63 -35,58 -48,51 -58,39 -59,34 -56,23 -50,12 -40,4 -34,1 -22,-4 -16,-6 -9,-6 -10,-9 -2,-4 -19,-9 -8,-3 -26,-9 -13,-2 -32,-7 -18,1 -37,-6 -22,3 -42,-3 -25,6 -47,-1 -28,8 -51,2 -31,11 -55,5 -34,13 -59,8 -36,16 -63,11 -38,19 -65,15 -40,22 -67,19 -41,26 -68,24 -41,29 -69,28 -41,32 -69,33 -40,35 -68,37 -39,38 -66,42 -37,41 -64,46 -36,44 -61,51 -34,47 -57,55 -32,50 -53,58 -30,52 -48,62 -27,55 -42,64 -25,57 -36,66 -22,59 -31,68 -19,61 -25,69 -14,63 -18,70 -9,65 -10,70 -1,68 11,65 20,62 27,59 35,55 41,52 47,49 41,54 48,52 43,55 49,52 42,55 49,52 43,55 49,52 42,55 42,55" fill="none" stroke="#293133" stroke-width="3" /><path d="M 65,13 66,4 65,13 66,5 65,13 66,4 66,15 66,3 66,13 65,5 67,-3 70,-12 75,-20 80,-25 89,-34 86,-40 95,-32 80,-41 96,-26 76,-38 94,-22 75,-35 90,-20 76,-29 83,-22 79,-25 73,-18 69,-10 67,-1 66,7 55,6 54,-2 52,-11 46,-22 38,-29 32,-34 34,-39 27,-33 39,-41 25,-25 43,-40 28,-21 46,-36 31,-20 46,-30 37,-21 42,-25 48,-18 53,-7 55,-1 57,8 59,18 61,30 62,46 53,47 45,52 45,63 56,70 70,69 75,65 77,50 65,44 52,43 46,48 44,60 53,70 64,72 75,64 77,55 73,47 65,41 59,40 50,38 72,38 41,42 80,41 37,45 84,44 35,49 86,48 34,52 88,51 33,56 89,55 33,59 89,58 34,62 88,62 35,66 87,66 38,69 84,69 41,72 80,73 50,75 69,76 64,81 59,92 59,108 62,120 58,121 50,126 47,136 58,143 69,142 74,133 67,124 59,121 54,123 48,128 48,137 56,143 67,143 73,140 75,130 72,124 65,119 60,119 49,117 72,116 42,120 79,119 39,124 82,123 38,128 84,127 37,132 85,130 37,135 85,134 38,139 84,138 40,142 82,142 43,146 79,145 51,150 71,149 58,155 60,170 60,177 58,183 55,184 53,188 59,193 67,191 69,188 65,183 56,181 49,184 51,189 61,195 67,191 72,187 68,184 62,180 60,180 55,176 67,177 46,179 76,180 44,183 78,184 43,186 79,188 43,190 78,191 45,194 76,195 53,198 67,198 55,198 64,197 58,197 64,196 57,197 64,196 58,197 64,196 57,197 57,197" fill="none" stroke="#913697" stroke-width="3" /><path d="M 65,206 55,206 65,206 56,207 65,206 55,206 66,206 59,206 62,208 62,204 59,201 53,204 55,210 63,211 68,209 67,205 61,202 55,203 53,206 51,200 51,212 53,198 56,216 57,196 59,217 61,195 62,216 64,209 68,205 70,211 71,201 68,214 67,198 65,216 64,196 61,216 61,196 61,182 61,168 61,183 61,198 61,184 61,171 69,169 71,164 69,158 63,154 56,155 50,158 49,165 53,170 65,171 72,167 71,161 65,156 50,157 48,163 54,171 65,172 70,170 74,165 75,161 76,169 76,156 72,175 73,152 69,177 69,149 65,178 65,148 62,178 61,147 58,157 46,163 44,169 45,155 48,175 48,152 52,177 51,150 55,178 55,149 59,178 58,147 62,177 63,148 61,134 61,120 60,106 61,120 62,134 62,149 62,135 62,120 61,106 70,104 76,97 75,89 63,86 52,86 47,88 44,99 52,108 66,108 71,105 74,99 71,89 66,85 57,84 48,88 44,98 47,104 56,109 70,106 77,100 79,95 82,104 80,87 78,109 78,81 75,112 75,79 72,114 71,76 68,115 68,75 65,116 64,75 62,116 61,75 55,91 42,97 40,104 40,88 44,110 43,82 48,113 46,79 51,115 50,77 55,116 54,76 58,117 58,75 61,117 63,76 61,60 61,43 61,27 61,44 61,60 61,76 61,61 61,45 61,30 69,28 72,18 67,9 59,6 52,8 47,15 49,25 58,31 66,30 72,22 70,12 67,6 57,5 50,9 45,17 45,22 42,8 42,28 45,2 46,35 49,-1 50,38 52,-3 54,40 56,-5 57,41 60,-5 61,42 64,-5 65,41 67,-4 68,40 71,-2 72,38 75,1 76,34 78,8 79,27 76,11 74,31 74,24 74,31 75,24 74,31 74,24 74,31 75,24" fill="none" stroke="#d8ccc6" stroke-width="3" /></svg>